{
  "accessors": [
    {
      "bufferView": 2,
      "componentType": 5126,
      "count": 32031,
      "max": [
        0.6849939227104187,
        0.40766024589538574,
        0.8161502480506897
      ],
      "min": [
        -0.64300823211669922,
        -0.63776880502700806,
        -0.5696595311164856
      ],
      "type": "VEC3"
    },
    {
      "bufferView": 2,
      "byteOffset": 384372,
      "componentType": 5126,
      "count": 32031,
      "max": [
        0.99995100498199463,
        0.99999547004699707,
        0.99998605251312256
      ],
      "min": [
        -0.99998795986175537,
        -0.99999797344207764,
        -0.99998307228088379
      ],
      "type": "VEC3"
    },
    {
      "bufferView": 0,
      "componentType": 5125,
      "count": 192174,
      "max": [
        32030
      ],
      "min": [
        0
      ],
      "type": "SCALAR"
    },
    {
      "bufferView": 2,
      "byteOffset": 768744,
      "componentType": 5126,
      "count": 13600,
      "max": [
        0.38612064719200134,
        0.31271368265151978,
        0.40582460165023804
      ],
      "min": [
        -0.37597396969795227,
        -0.29942560195922852,
        -0.3920714259147644
      ],
      "type": "VEC3"
    },
    {
      "bufferView": 2,
      "byteOffset": 931944,
      "componentType": 5126,
      "count": 13600,
      "max": [
        0.9999617338180542,
        0.99995696544647217,
        0.99999451637268066
      ],
      "min": [
        -0.99999606609344482,
        -0.99993538856506348,
        -0.99996256828308105
      ],
      "type": "VEC3"
    },
    {
      "bufferView": 0,
      "byteOffset": 768696,
      "componentType": 5125,
      "count": 81588,
      "max": [
        13599
      ],
      "min": [
        0
      ],
      "type": "SCALAR"
    },
    {
      "bufferView": 2,
      "byteOffset": 1095144,
      "componentType": 5126,
      "count": 715,
      "max": [
        0.57142281532287598,
        0.65192639827728271,
        0.99864852428436279
      ],
      "min": [
        -0.68699288368225098,
        -0.45677301287651062,
        -0.56483334302902222
      ],
      "type": "VEC3"
    },
    {
      "bufferView": 2,
      "byteOffset": 1103724,
      "componentType": 5126,
      "count": 715,
      "max": [
        0.99990499019622803,
        0.99937629699707031,
        1
      ],
      "min": [
        -0.99948740005493164,
        -0.99984312057495117,
        -1
      ],
      "type": "VEC3"
    },
    {
      "bufferView": 3,
      "componentType": 5126,
      "count": 715,
      "max": [
        0.99995130300521851,
        0.99999523162841797,
        0.99645954370498657,
        1
      ],
      "min": [
        -0.99982798099517822,
        -0.54739141464233398,
        -0.94806832075119019,
        1
      ],
      "type": "VEC4"
    },
    {
      "bufferView": 1,
      "componentType": 5126,
      "count": 715,
      "max": [
        0.87500011920928955,
        1.0000001192092896
      ],
      "min": [
        0.12500001490116119,
        0
      ],
      "type": "VEC2"
    },
    {
      "bufferView": 0,
      "byteOffset": 1095048,
      "componentType": 5125,
      "count": 3840,
      "max": [
        714
      ],
      "min": [
        0
      ],
      "type": "SCALAR"
    },
    {
      "bufferView": 2,
      "byteOffset": 1112304,
      "componentType": 5126,
      "count": 715,
      "max": [
        0.60730397701263428,
        0.60276716947555542,
        0.99864852428436279
      ],
      "min": [
        -0.67066740989685059,
        -0.45398342609405518,
        -0.56483334302902222
      ],
      "type": "VEC3"
    },
    {
      "bufferView": 2,
      "byteOffset": 1120884,
      "componentType": 5126,
      "count": 715,
      "max": [
        0.99843966960906982,
        0.99965226650238037,
        1
      ],
      "min": [
        -0.9993671178817749,
        -0.99984896183013916,
        -1
      ],
      "type": "VEC3"
    },
    {
      "bufferView": 3,
      "byteOffset": 11440,
      "componentType": 5126,
      "count": 715,
      "max": [
        0.99995189905166626,
        0.99999535083770752,
        0.995064377784729,
        1
      ],
      "min": [
        -0.99923837184906006,
        -0.61778724193572998,
        -0.94947135448455811,
        1
      ],
      "type": "VEC4"
    },
    {
      "bufferView": 1,
      "byteOffset": 5720,
      "componentType": 5126,
      "count": 715,
      "max": [
        0.87500011920928955,
        1.0000001192092896
      ],
      "min": [
        0.12500001490116119,
        0
      ],
      "type": "VEC2"
    },
    {
      "bufferView": 0,
      "byteOffset": 1110408,
      "componentType": 5125,
      "count": 3840,
      "max": [
        714
      ],
      "min": [
        0
      ],
      "type": "SCALAR"
    },
    {
      "bufferView": 2,
      "byteOffset": 1129464,
      "componentType": 5126,
      "count": 1890,
      "max": [
        -0.29221248626708984,
        0.59112566709518433,
        0.0077826026827096939
      ],
      "min": [
        -1.324029803276062,
        0.0197749063372612,
        -0.07166726142168045
      ],
      "type": "VEC3"
    },
    {
      "bufferView": 2,
      "byteOffset": 1152144,
      "componentType": 5126,
      "count": 1890,
      "max": [
        0.99113541841506958,
        0.99721610546112061,
        0.99994385242462158
      ],
      "min": [
        -0.99652159214019775,
        -0.99960052967071533,
        -0.99998021125793457
      ],
      "type": "VEC3"
    },
    {
      "bufferView": 0,
      "byteOffset": 1125768,
      "componentType": 5125,
      "count": 11328,
      "max": [
        1889
      ],
      "min": [
        0
      ],
      "type": "SCALAR"
    },
    {
      "bufferView": 2,
      "byteOffset": 1174824,
      "componentType": 5126,
      "count": 1649,
      "max": [
        0.15894640982151031,
        0.13518333435058594,
        0.11817946285009384
      ],
      "min": [
        -0.15894640982151031,
        -0.09666992723941803,
        -0.14377684891223907
      ],
      "type": "VEC3"
    },
    {
      "bufferView": 2,
      "byteOffset": 1194612,
      "componentType": 5126,
      "count": 1649,
      "max": [
        1,
        1,
        1
      ],
      "min": [
        -1,
        -1,
        -1
      ],
      "type": "VEC3"
    },
    {
      "bufferView": 3,
      "byteOffset": 22880,
      "componentType": 5126,
      "count": 1649,
      "max": [
        0.99381011724472046,
        1,
        0.99389874935150146,
        1
      ],
      "min": [
        -0.99380999803543091,
        -0.060328412801027298,
        -0.99390220642089844,
        -1
      ],
      "type": "VEC4"
    },
    {
      "bufferView": 1,
      "byteOffset": 11440,
      "componentType": 5126,
      "count": 1649,
      "max": [
        0.75000011920928955,
        0.87500011920928955
      ],
      "min": [
        0.25,
        0.375
      ],
      "type": "VEC2"
    },
    {
      "bufferView": 0,
      "byteOffset": 1171080,
      "componentType": 5125,
      "count": 8448,
      "max": [
        1648
      ],
      "min": [
        0
      ],
      "type": "SCALAR"
    },
    {
      "bufferView": 2,
      "byteOffset": 1214400,
      "componentType": 5126,
      "count": 1118,
      "max": [
        0.25752261281013489,
        0.63844341039657593,
        0.32905450463294983
      ],
      "min": [
        -0.25752261281013489,
        0.3653876781463623,
        0.055998682975769043
      ],
      "type": "VEC3"
    },
    {
      "bufferView": 2,
      "byteOffset": 1227816,
      "componentType": 5126,
      "count": 1118,
      "max": [
        1,
        1,
        1
      ],
      "min": [
        -1,
        -1,
        -1
      ],
      "type": "VEC3"
    },
    {
      "bufferView": 3,
      "byteOffset": 49264,
      "componentType": 5126,
      "count": 1118,
      "max": [
        1,
        0.67623943090438843,
        1,
        1
      ],
      "min": [
        -1,
        -0.6762394905090332,
        -1,
        -1
      ],
      "type": "VEC4"
    },
    {
      "bufferView": 1,
      "byteOffset": 24632,
      "componentType": 5126,
      "count": 1118,
      "max": [
        1.0000002384185791,
        1
      ],
      "min": [
        0,
        0
      ],
      "type": "VEC2"
    },
    {
      "bufferView": 0,
      "byteOffset": 1204872,
      "componentType": 5125,
      "count": 5760,
      "max": [
        1117
      ],
      "min": [
        0
      ],
      "type": "SCALAR"
    },
    {
      "bufferView": 2,
      "byteOffset": 1241232,
      "componentType": 5126,
      "count": 65532,
      "max": [
        0.55941838026046753,
        0.8678397536277771,
        0.8070605993270874
      ],
      "min": [
        -0.55922502279281616,
        -0.95010954141616821,
        -0.49482840299606323
      ],
      "type": "VEC3"
    },
    {
      "bufferView": 2,
      "byteOffset": 2027616,
      "componentType": 5126,
      "count": 65532,
      "max": [
        0.99995756149291992,
        0.99999868869781494,
        0.99999690055847168
      ],
      "min": [
        -0.999916672706604,
        -0.99999356269836426,
        -0.99999821186065674
      ],
      "type": "VEC3"
    },
    {
      "bufferView": 0,
      "byteOffset": 1227912,
      "componentType": 5125,
      "count": 371310,
      "max": [
        65531
      ],
      "min": [
        0
      ],
      "type": "SCALAR"
    },
    {
      "bufferView": 2,
      "byteOffset": 2814000,
      "componentType": 5126,
      "count": 15577,
      "max": [
        0.55430048704147339,
        0.85461252927780151,
        0.79993599653244019
      ],
      "min": [
        -0.55203104019165039,
        -0.92501556873321533,
        -0.49409419298171997
      ],
      "type": "VEC3"
    },
    {
      "bufferView": 2,
      "byteOffset": 3000924,
      "componentType": 5126,
      "count": 15577,
      "max": [
        0.99260586500167847,
        0.99996757507324219,
        0.99999690055847168
      ],
      "min": [
        -0.99028795957565308,
        -0.9963144063949585,
        -0.99971652030944824
      ],
      "type": "VEC3"
    },
    {
      "bufferView": 0,
      "byteOffset": 2713152,
      "componentType": 5125,
      "count": 51630,
      "max": [
        15576
      ],
      "min": [
        0
      ],
      "type": "SCALAR"
    },
    {
      "bufferView": 2,
      "byteOffset": 3187848,
      "componentType": 5126,
      "count": 1934,
      "max": [
        1.324029803276062,
        0.59112566709518433,
        0.0055608926340937614
      ],
      "min": [
        0.29221248626708984,
        0.0197749063372612,
        -0.07166726142168045
      ],
      "type": "VEC3"
    },
    {
      "bufferView": 2,
      "byteOffset": 3211056,
      "componentType": 5126,
      "count": 1934,
      "max": [
        0.99652159214019775,
        0.99721610546112061,
        0.99994385242462158
      ],
      "min": [
        -0.99113541841506958,
        -0.9996035099029541,
        -0.99994552135467529
      ],
      "type": "VEC3"
    },
    {
      "bufferView": 0,
      "byteOffset": 2919672,
      "componentType": 5125,
      "count": 11592,
      "max": [
        1933
      ],
      "min": [
        0
      ],
      "type": "SCALAR"
    },
    {
      "bufferView": 2,
      "byteOffset": 3234264,
      "componentType": 5126,
      "count": 14906,
      "max": [
        0.41054770350456238,
        0.72940123081207275,
        0.062146663665771484
      ],
      "min": [
        -0.30527529120445251,
        -0.042506366968154907,
        -0.011220637708902359
      ],
      "type": "VEC3"
    },
    {
      "bufferView": 2,
      "byteOffset": 3413136,
      "componentType": 5126,
      "count": 14906,
      "max": [
        0.99999046325683594,
        0.99998974800109863,
        0.99999904632568359
      ],
      "min": [
        -0.99999940395355225,
        -0.99940133094787598,
        -0.99999904632568359
      ],
      "type": "VEC3"
    },
    {
      "bufferView": 3,
      "byteOffset": 67152,
      "componentType": 5126,
      "count": 14906,
      "max": [
        1,
        0.9999006986618042,
        0.99991178512573242,
        1
      ],
      "min": [
        -0.99881207942962646,
        -0.9999309778213501,
        -0.999991774559021,
        -1
      ],
      "type": "VEC4"
    },
    {
      "bufferView": 1,
      "byteOffset": 33576,
      "componentType": 5126,
      "count": 14906,
      "max": [
        0.87500011920928955,
        1.0000001192092896
      ],
      "min": [
        0,
        0
      ],
      "type": "VEC2"
    },
    {
      "bufferView": 0,
      "byteOffset": 2966040,
      "componentType": 5125,
      "count": 45636,
      "max": [
        14905
      ],
      "min": [
        0
      ],
      "type": "SCALAR"
    },
    {
      "bufferView": 2,
      "byteOffset": 3592008,
      "componentType": 5126,
      "count": 2483,
      "max": [
        0.53101986646652222,
        0.18834042549133301,
        0.1627015620470047
      ],
      "min": [
        -0.522926926612854,
        -0.09072238951921463,
        -0.16270157694816589
      ],
      "type": "VEC3"
    },
    {
      "bufferView": 2,
      "byteOffset": 3621804,
      "componentType": 5126,
      "count": 2483,
      "max": [
        1,
        0.99899870157241821,
        0.99845272302627563
      ],
      "min": [
        -1,
        -0.99953699111938477,
        -0.99856185913085938
      ],
      "type": "VEC3"
    },
    {
      "bufferView": 3,
      "byteOffset": 305648,
      "componentType": 5126,
      "count": 2483,
      "max": [
        0.99999904632568359,
        1,
        0.91678839921951294,
        1
      ],
      "min": [
        -0.99957805871963501,
        -0.44249406456947327,
        -0.92661124467849731,
        1
      ],
      "type": "VEC4"
    },
    {
      "bufferView": 1,
      "byteOffset": 152824,
      "componentType": 5126,
      "count": 2483,
      "max": [
        0.87500011920928955,
        1.0000001192092896
      ],
      "min": [
        0.12500001490116119,
        0
      ],
      "type": "VEC2"
    },
    {
      "bufferView": 0,
      "byteOffset": 3148584,
      "componentType": 5125,
      "count": 13056,
      "max": [
        2482
      ],
      "min": [
        0
      ],
      "type": "SCALAR"
    }
  ],
  "asset": {
    "extras": {
      "author": "M Wildan Azmi (https://sketchfab.com/tankina)",
      "license": "CC-BY-NC-4.0 (http://creativecommons.org/licenses/by-nc/4.0/)",
      "source": "https://sketchfab.com/3d-models/olaf-the-snowman-frozen-519d3a73886041fdb4fdb6ecc298861e",
      "title": "Olaf The Snowman (Frozen)"
    },
    "generator": "Sketchfab-7.4.1",
    "version": "2.0"
  },
  "bufferViews": [
    {
      "buffer": 0,
      "byteLength": 3200808,
      "byteOffset": 0,
      "name": "floatBufferViews",
      "target": 34963
    },
    {
      "buffer": 0,
      "byteLength": 172688,
      "byteOffset": 3200808,
      "byteStride": 8,
      "name": "floatBufferViews",
      "target": 34962
    },
    {
      "buffer": 0,
      "byteLength": 3651600,
      "byteOffset": 3373496,
      "byteStride": 12,
      "name": "floatBufferViews",
      "target": 34962
    },
    {
      "buffer": 0,
      "byteLength": 345376,
      "byteOffset": 7025096,
      "byteStride": 16,
      "name": "floatBufferViews",
      "target": 34962
    }
  ],
  "buffers": [
    {
      "byteLength": 7370472,
      "uri": "scene.bin"
    }
  ],
  "materials": [
    {
      "doubleSided": true,
      "name": "Scene_-_Root",
      "pbrMetallicRoughness": {
        "baseColorFactor": [
          1,
          1,
          1,
          1
        ],
        "metallicFactor": 0,
        "roughnessFactor": 0.59999999999999998
      }
    }
  ],
  "meshes": [
    {
      "primitives": [
        {
          "attributes": {
            "NORMAL": 1,
            "POSITION": 0
          },
          "indices": 2,
          "material": 0,
          "mode": 4
        }
      ]
    },
    {
      "primitives": [
        {
          "attributes": {
            "NORMAL": 4,
            "POSITION": 3
          },
          "indices": 5,
          "material": 0,
          "mode": 4
        }
      ]
    },
    {
      "primitives": [
        {
          "attributes": {
            "NORMAL": 7,
            "POSITION": 6,
            "TANGENT": 8,
            "TEXCOORD_0": 9
          },
          "indices": 10,
          "material": 0,
          "mode": 4
        }
      ]
    },
    {
      "primitives": [
        {
          "attributes": {
            "NORMAL": 12,
            "POSITION": 11,
            "TANGENT": 13,
            "TEXCOORD_0": 14
          },
          "indices": 15,
          "material": 0,
          "mode": 4
        }
      ]
    },
    {
      "primitives": [
        {
          "attributes": {
            "NORMAL": 17,
            "POSITION": 16
          },
          "indices": 18,
          "material": 0,
          "mode": 4
        }
      ]
    },
    {
      "primitives": [
        {
          "attributes": {
            "NORMAL": 20,
            "POSITION": 19,
            "TANGENT": 21,
            "TEXCOORD_0": 22
          },
          "indices": 23,
          "material": 0,
          "mode": 4
        }
      ]
    },
    {
      "primitives": [
        {
          "attributes": {
            "NORMAL": 25,
            "POSITION": 24,
            "TANGENT": 26,
            "TEXCOORD_0": 27
          },
          "indices": 28,
          "material": 0,
          "mode": 4
        }
      ]
    },
    {
      "primitives": [
        {
          "attributes": {
            "NORMAL": 30,
            "POSITION": 29
          },
          "indices": 31,
          "material": 0,
          "mode": 4
        }
      ]
    },
    {
      "primitives": [
        {
          "attributes": {
            "NORMAL": 33,
            "POSITION": 32
          },
          "indices": 34,
          "material": 0,
          "mode": 4
        }
      ]
    },
    {
      "primitives": [
        {
          "attributes": {
            "NORMAL": 36,
            "POSITION": 35
          },
          "indices": 37,
          "material": 0,
          "mode": 4
        }
      ]
    },
    {
      "primitives": [
        {
          "attributes": {
            "NORMAL": 39,
            "POSITION": 38,
            "TANGENT": 40,
            "TEXCOORD_0": 41
          },
          "indices": 42,
          "material": 0,
          "mode": 4
        }
      ]
    },
    {
      "primitives": [
        {
          "attributes": {
            "NORMAL": 44,
            "POSITION": 43,
            "TANGENT": 45,
            "TEXCOORD_0": 46
          },
          "indices": 47,
          "material": 0,
          "mode": 4
        }
      ]
    }
  ],
  "nodes": [
    {
      "children": [
        1
      ],
      "name": "RootNode (gltf orientation matrix)",
      "rotation": [
        -0.70710678118654746,
        -0,
        -0,
        0.70710678118654757
      ]
    },
    {
      "children": [
        2
      ],
      "name": "RootNode (model correction matrix)"
    },
    {
      "children": [
        3
      ],
      "name": "root"
    },
    {
      "children": [
        4,
        6,
        8,
        10,
        12,
        14,
        16,
        18,
        21,
        23,
        25
      ],
      "matrix": [
        1,
        0,
        0,
        0,
        0,
        2.2204460492503131e-16,
        1,
        0,
        0,
        -1,
        2.2204460492503131e-16,
        0,
        0,
        0,
        0,
        1
      ],
      "name": "GLTF_SceneRootNode"
    },
    {
      "children": [
        5
      ],
      "matrix": [
        1,
        0,
        0,
        0,
        0,
        1,
        0,
        0,
        0,
        0,
        1,
        0,
        -0.017353534698486328,
        -0.55655109882354736,
        -0.29211348295211792,
        1
      ],
      "name": "l_body_0"
    },
    {
      "mesh": 0,
      "name": ""
    },
    {
      "children": [
        7
      ],
      "matrix": [
        1,
        0,
        0,
        0,
        0,
        1,
        0,
        0,
        0,
        0,
        1,
        0,
        0.010555028915405273,
        -0.003986656665802002,
        -0.13782781362533569,
        1
      ],
      "name": "u_body_1"
    },
    {
      "mesh": 1,
      "name": ""
    },
    {
      "children": [
        9
      ],
      "matrix": [
        0.40970435738563538,
        0,
        0,
        0,
        0,
        0.40970435738563538,
        0,
        0,
        0,
        0,
        0.40970435738563538,
        0,
        -0.32445275783538818,
        -1.3351686000823975,
        -0.15921340882778168,
        1
      ],
      "name": "r_foot_2"
    },
    {
      "mesh": 2,
      "name": ""
    },
    {
      "children": [
        11
      ],
      "matrix": [
        0.40970435738563538,
        0,
        0,
        0,
        0,
        0.40970435738563538,
        0,
        0,
        0,
        0,
        0.40970435738563538,
        0,
        0.40732228755950928,
        -1.3364208936691284,
        -0.15921340882778168,
        1
      ],
      "name": "l_foot_3"
    },
    {
      "mesh": 3,
      "name": ""
    },
    {
      "children": [
        13
      ],
      "matrix": [
        0.97190018445401949,
        -0.23539335474529194,
        -0,
        0,
        0.23539335474529194,
        0.97190018445401949,
        0,
        0,
        0,
        0,
        1,
        0,
        -0.0040619373321533203,
        0.037630230188369751,
        -0.13782781362533569,
        1
      ],
      "name": "r_hand_4"
    },
    {
      "mesh": 4,
      "name": ""
    },
    {
      "children": [
        15
      ],
      "matrix": [
        1,
        0,
        0,
        0,
        0,
        1,
        0,
        0,
        0,
        0,
        0.33727133274078369,
        0,
        0.023933053016662598,
        0.89733552932739258,
        0.45604780316352844,
        1
      ],
      "name": "teeth_5"
    },
    {
      "mesh": 5,
      "name": ""
    },
    {
      "children": [
        17
      ],
      "matrix": [
        1,
        0,
        0,
        0,
        0,
        1,
        0,
        0,
        0,
        0,
        1,
        0,
        0.023933053016662598,
        1.0170919895172119,
        -0.23025302588939667,
        1
      ],
      "name": "Eye_6"
    },
    {
      "mesh": 6,
      "name": ""
    },
    {
      "children": [
        19,
        20
      ],
      "matrix": [
        1,
        0,
        0,
        0,
        0,
        1,
        0,
        0,
        0,
        0,
        1,
        0,
        0.02393341064453125,
        1.0553427934646606,
        -0.25775933265686035,
        1
      ],
      "name": "Head_7"
    },
    {
      "mesh": 7,
      "name": ""
    },
    {
      "mesh": 8,
      "name": ""
    },
    {
      "children": [
        22
      ],
      "matrix": [
        0.65831822562670772,
        -0.59264683630676718,
        -0.46409787892564536,
        0,
        0.34491943966150812,
        -0.31051154788006552,
        0.8857839232999869,
        0,
        -0.66906479054819079,
        -0.74320408102263924,
        3.459088460111559e-09,
        0,
        0.061052680015563965,
        0.27722102403640747,
        -0.1378277987241745,
        1
      ],
      "name": "l_hand_8"
    },
    {
      "mesh": 9,
      "name": ""
    },
    {
      "children": [
        24
      ],
      "matrix": [
        -0.99999999999994671,
        0,
        3.2584136988588439e-07,
        0,
        0,
        1,
        0,
        0,
        -3.2584136988588439e-07,
        0,
        -0.99999999999994671,
        0,
        0.095223143696784973,
        1.909738302230835,
        -0.30680668354034424,
        1
      ],
      "name": "Hair_9"
    },
    {
      "mesh": 10,
      "name": ""
    },
    {
      "children": [
        26
      ],
      "matrix": [
        0,
        0,
        -1,
        0,
        0,
        1,
        0,
        0,
        1,
        0,
        0,
        0,
        0.02393341064453125,
        1.2544128894805908,
        0.46885114908218384,
        1
      ],
      "name": "Nose_10"
    },
    {
      "mesh": 11,
      "name": ""
    }
  ],
  "scene": 0,
  "scenes": [
    {
      "name": "OSG_Scene",
      "nodes": [
        0
      ]
    }
  ]
}

